<svg xmlns="http://www.w3.org/2000/svg" viewBox="0 0 500 500"><g id="freepik--background-complete--inject-194"><path d="M426.64,233.9a29,29,0,1,1,13.3-31.38A28.94,28.94,0,0,1,426.64,233.9Z" style="fill:#ebebeb"></path><path d="M420.55,205.85a8.82,8.82,0,1,1-8.72-8.93A8.82,8.82,0,0,1,420.55,205.85Z" style="fill:#fff"></path><path d="M426.68,230.26l0,3.64a29,29,0,0,1-30.49-.38l.05-3.63a15.24,15.24,0,1,1,30.48.37Z" style="fill:#fff"></path><path d="M100.59,147.59a19,19,0,0,1-20-.25,19,19,0,1,1,20,.25Z" style="fill:#ebebeb"></path><path d="M96.6,129.21a5.78,5.78,0,1,1-5.71-5.84A5.77,5.77,0,0,1,96.6,129.21Z" style="fill:#fff"></path><path d="M100.62,145.2l0,2.39a19,19,0,0,1-20-.25l0-2.37a10,10,0,1,1,20,.23Z" style="fill:#fff"></path><path d="M185.45,150.32H58.81V63.68H185.45Zm-125.64-1H184.45V64.68H59.81Z" style="fill:#ebebeb"></path><path d="M68.71,69.26a2.52,2.52,0,1,1-2.52-2.52A2.52,2.52,0,0,1,68.71,69.26Z" style="fill:#a6a6a6"></path><path d="M79,69.26a2.52,2.52,0,1,1-2.52-2.52A2.52,2.52,0,0,1,79,69.26Z" style="fill:#ebebeb"></path><path d="M89.29,69.26a2.52,2.52,0,1,1-2.52-2.52A2.52,2.52,0,0,1,89.29,69.26Z" style="fill:#3A3A3C"></path><rect x="59.31" y="73.7" width="125.64" height="1" style="fill:#ebebeb"></rect><rect x="73.19" y="177.37" width="66.59" height="42.23" transform="translate(-25.84 16.21) rotate(-7.77)" style="fill:#ebebeb"></rect><path d="M136.63,173.07c-2.32,2.91-4.7,5.72-7,8.59s-4.76,5.65-7.15,8.45-5,5.82-7.52,8.7l-.23.28q-3.33,3.81-6.7,7.63l-.33.36-.41-.26c-2.84-1.85-5.66-3.7-8.49-5.57l-.3-.19c-3.2-2.11-6.4-4.23-9.59-6.39s-6.1-4.12-9.14-6.21-6.07-4.21-9.08-6.4c3.13,1.8,6.23,3.71,9.33,5.57s6.21,3.8,9.31,5.74q5.16,3.21,10.32,6.53h0q3.87,2.46,7.73,5c2-2.29,4.07-4.58,6.12-6.84,0,0,0,0,0,0,2.73-3,5.45-6.06,8.2-9.06q3.69-4,7.42-8C131.62,178.31,134.09,175.64,136.63,173.07Z" style="fill:#fff"></path><path d="M99.84,200.84l-.07.08c-.3.34-.61.69-.92,1-1.46,1.62-3,3.19-4.52,4.73-1.88,1.89-3.82,3.72-5.78,5.54s-3.94,3.57-6,5.3-4.1,3.44-6.25,5c1.76-2,3.62-3.94,5.5-5.82s3.83-3.73,5.78-5.54,4-3.59,6-5.32c1.62-1.38,3.27-2.75,5-4.05.39-.31.79-.6,1.19-.9Z" style="fill:#fff"></path><path d="M142,213.59c-2.5-1-5-2.05-7.36-3.17s-4.81-2.32-7.19-3.52-4.73-2.47-7-3.79c-1.89-1.06-3.77-2.16-5.6-3.33l-1.18-.75-.08-.06.1,0,1.39.55c2,.8,3.93,1.68,5.87,2.58,2.43,1.12,4.81,2.31,7.18,3.52s4.73,2.47,7.05,3.79S139.75,212.11,142,213.59Z" style="fill:#fff"></path><rect x="343.34" y="62.24" width="81.66" height="51.79" style="fill:#ebebeb"></rect><path d="M425,62.24c-3.3,3.15-6.66,6.17-10,9.28s-6.71,6.07-10.08,9.08-7.05,6.24-10.59,9.32l-.31.3q-4.69,4.09-9.41,8.17l-.47.38-.45-.38q-4.71-4.08-9.39-8.18l-.33-.29q-5.33-4.62-10.6-9.34c-3.36-3-6.72-6-10.07-9.06s-6.68-6.13-10-9.28c3.51,2.7,7,5.54,10.42,8.31s6.92,5.64,10.35,8.51q5.75,4.75,11.47,9.65h0q4.29,3.63,8.58,7.3c2.84-2.44,5.7-4.89,8.56-7.3,0,0,0,0,0,0q5.72-4.86,11.47-9.65,5.14-4.28,10.34-8.49C418.05,67.78,421.49,64.94,425,62.24Z" style="fill:#fff"></path><path d="M375.7,89.89a.87.87,0,0,1-.1.08c-.43.37-.85.74-1.28,1.09-2.05,1.73-4.15,3.39-6.28,5-2.6,2-5.26,3.89-7.94,5.78s-5.38,3.69-8.14,5.46-5.54,3.49-8.42,5.07c2.47-2.17,5-4.19,7.65-6.16s5.27-3.89,7.93-5.78,5.4-3.7,8.16-5.47c2.19-1.41,4.42-2.8,6.71-4.1.52-.3,1.05-.6,1.59-.89Z" style="fill:#fff"></path><path d="M424.81,112.36c-2.89-1.58-5.68-3.31-8.43-5.07s-5.46-3.61-8.16-5.46-5.33-3.79-7.93-5.78c-2.12-1.6-4.22-3.25-6.25-5-.45-.37-.87-.74-1.3-1.11a.87.87,0,0,1-.1-.08l.12.06,1.59.9c2.29,1.3,4.51,2.69,6.71,4.1,2.76,1.77,5.46,3.61,8.15,5.47s5.33,3.79,7.93,5.78S422.33,110.19,424.81,112.36Z" style="fill:#fff"></path></g><g id="freepik--Shadow--inject-194"><ellipse cx="236.09" cy="442.79" rx="143.19" ry="11.09" style="fill:#ebebeb"></ellipse></g><g id="freepik--Lamp--inject-194"><rect x="283.56" width="1" height="137.56" style="fill:#c7c7c7"></rect><polygon points="243.24 176.91 246.53 184.13 321.61 184.13 324.88 176.91 292.92 154.78 275.21 154.78 243.24 176.91" style="fill:#3A3A3C"></polygon><polygon points="272.99 133.47 275.21 154.78 292.92 154.78 295.14 133.47 272.99 133.47" style="fill:#3A3A3C"></polygon><polygon points="243.25 176.91 246.53 184.13 321.62 184.13 324.89 176.91 243.25 176.91" style="opacity:0.1"></polygon><polygon points="275.21 154.78 274.97 152.49 293.29 151.17 292.92 154.78 275.21 154.78" style="opacity:0.1"></polygon><rect x="215.43" width="1" height="94.27" style="fill:#c7c7c7"></rect><polygon points="175.11 133.62 178.4 140.84 253.48 140.84 256.75 133.62 224.79 111.5 207.08 111.5 175.11 133.62" style="fill:#3A3A3C"></polygon><polygon points="204.86 90.18 207.08 111.5 224.79 111.5 227.01 90.18 204.86 90.18" style="fill:#3A3A3C"></polygon><polygon points="175.12 133.63 178.4 140.84 253.48 140.84 256.76 133.63 175.12 133.63" style="opacity:0.1"></polygon><polygon points="207.08 111.5 206.82 109.03 225.17 107.84 224.79 111.5 207.08 111.5" style="opacity:0.1"></polygon></g><g id="freepik--Plant--inject-194"><path d="M387.3,313.7a91.89,91.89,0,0,1,2.14-15c1.06-4.45,2.56-9,5.37-12.69a16.14,16.14,0,0,1,10.53-6.56c4.13-.5,8,1.34,11.09,3.93,3.82,3.22,6.75,7.49,9.5,11.62a141.44,141.44,0,0,1,8.2,14.36c.09.16-.16.3-.24.14a90,90,0,0,0-7.34-12,76,76,0,0,0-8.45-10.23c-2.83-2.76-6.43-5.35-10.54-5.48s-7.85,2.16-10.3,5.31c-2.75,3.52-4.15,7.91-5.2,12.19A91.09,91.09,0,0,0,390,313.55c-.81,9.91-1,19.88-1.25,29.81-.13,5.62-.2,11.25-.26,16.87l-.06,8.55a54,54,0,0,1-.33,8.24c-.1.55-1,.5-1.1,0a48.49,48.49,0,0,1-.37-7.81q-.06-4.05-.1-8.1-.08-7.87-.06-15.75C386.45,334.79,386.58,324.22,387.3,313.7Z" style="fill:#263238"></path><path d="M401.46,306.23c.52-2.8,1.47-6.45,3.06-8.62,2.87-3.9,6-2.21,3.11,2.11a25.78,25.78,0,0,0-4,10.65s4.82,6.89,10.64,10.28c-.25-2.65-1-6.72-.48-10.65,1.12-8.51,6.27-8,5-1.27-1,5.42-1.44,11.18-1.16,13.67a29.09,29.09,0,0,0,6.22,3.05c-.34-1-.69-2.17-1.08-3.61-2.07-7.63,3-10,3.18-5.71a60.66,60.66,0,0,0,2,10.82c2.79.94,5.11,1.58,6.52,2.07a23.85,23.85,0,0,1,9.54,6.52,30,30,0,0,0,6.5-8.41c-1.78-1.53-4.59-3.8-8.49-6.56-7.31-5.16-4.77-11.68,1-7.63,4.18,2.93,7.42,8.35,8.9,11.13a45.43,45.43,0,0,0,3.31-15.23c-5.74-5.39-19.95-12.91-15.67-12.91,3.86,0,12.48,5.65,15.64,7.83a38.81,38.81,0,0,0-.48-4.42c-5.41-3.55-23-9.06-20.19-10.65,3.07-1.74,15.34,3.94,19.05,5.73a22.31,22.31,0,0,0-3.25-6.73c-7.48-10-21-13.45-26.84-11.55-4.16,1.35-3,11.91-3.84,11.55C402.91,281,395.31,285.72,401.46,306.23Zm41-1.16c1.19-1.43,6.67,2.79,5.09,5.09S440.91,306.91,442.44,305.07Zm-28.67-9c1.44.92-.69,6.25-2.92,4.64C409,299.33,412.32,295.14,413.77,296.07Z" style="fill:#3A3A3C"></path><path d="M416,297.7c.75-1.49,1.54-3,2.4-4.41a25.62,25.62,0,0,1,2.76-4c-.23-.29-.46-.59-.71-.88-.1-.12.07-.28.17-.17.28.32.55.65.82,1a.24.24,0,0,1,.12.14q1.55,1.86,2.93,3.81a45.06,45.06,0,0,1,4.86,1.41c1.64.55,3.27,1.12,4.86,1.79.17.07.08.35-.08.27-1.58-.69-3.18-1.37-4.82-1.92s-3.12-.93-4.69-1.37c.51.72,1,1.44,1.49,2.18a57.72,57.72,0,0,1,8.59,3.5c2.9,1.38,5.69,3,8.47,4.59.16.09,0,.34-.15.24a92,92,0,0,0-8.43-4.36c-2.69-1.26-5.47-2.29-8.18-3.49,6.83,10.65,10.92,22.95,16.4,34.33.08.17-.18.3-.25.14-1.67-4-3.6-7.88-5.42-11.81-1.63-3.53-3.23-7.07-4.86-10.6-.48-1-1-2.06-1.48-3.08.3,5.69.18,11.48,1.12,17.1a.14.14,0,1,1-.28,0c-.4-6.08-1.47-12.07-1.43-18.18,0,0,0-.05,0-.08-1.16-2.33-2.4-4.62-3.73-6.85-2.26,5.32-4.64,10.73-5.69,16.45,0,.17-.32.1-.28-.08,1.54-5.73,3-11.47,5.73-16.77a63.85,63.85,0,0,0-4.81-6.93c-.76,1.41-1.73,2.75-2.59,4.1s-1.67,2.65-2.45,4a57.28,57.28,0,0,0-4.27,9c-.07.17-.34.08-.27-.08C413.15,303.7,414.47,300.65,416,297.7Z" style="fill:#263238"></path><path d="M362.14,310.66c4.38-4.4,9.47-10.16,16.24-10.15,6.54,0,11.35,5.27,14.11,10.7,2.89,5.68,3.93,12.11,4.75,18.36A224.18,224.18,0,0,1,399,352.14c.12,4.19.1,8.39,0,12.58a84.32,84.32,0,0,1-1,12.69c-.12.67-1.21.7-1.25,0-.2-3.53-.06-7.08,0-10.61s0-7-.16-10.43c-.26-7-.77-14-1.6-21-.72-6.11-1.29-12.38-3.12-18.28-1.64-5.32-4.73-11.4-10.12-13.74-7.36-3.18-14.55,2.64-19.36,7.56C362.23,311,362,310.79,362.14,310.66Z" style="fill:#263238"></path><path d="M339.79,320.48h0c0,.9.08,1.78.14,2.65a15.87,15.87,0,0,1,7.18-3c6.22-.66,5.82,4.06,1.67,4.26a23.6,23.6,0,0,0-8.53,1.71c1,8.21,3.27,14.81,3.61,14.9A119.47,119.47,0,0,0,360.29,339c-1.55-3.3-5.07-7.68-3.27-8s3.75,3.54,4.75,7.73a78.92,78.92,0,0,0,12-3.29c-2.74-2.37-7-5.32-5.35-6.57s5,2.89,7,5.91a24.57,24.57,0,0,0,5.17-2.88c-3.69-5.42-12.67-6.52-11.5-10.43s9.58,1.51,13.35,8.76c4.43-4.6,5.73-11.1,5.26-16.66-3.86-.45-11.28.37-10.74-2.4s5.9-2.25,10.29-.63a15.29,15.29,0,0,0-2.58-6.11c-4.06-5.22-16.48,1.42-16.48,1.42s1.33-12.48-3.4-14.63c-2.73-1.24-7.55-1.23-12.38,1.61,2.71.23,6,1.09,7.3,3,1.69,2.39-1,3.7-2.66,2.59-1.19-.78-3.41-3.25-7.42-3.58a24.87,24.87,0,0,0-4.48,5c-.46.65-.88,1.33-1.31,2.07a17,17,0,0,1,14.54.26c5.38,2.67,2.37,8.26-2.26,6.09s-9-4.31-13.95-3.08A34.82,34.82,0,0,0,339.74,319a24.35,24.35,0,0,1,8-3.83c5.35-1.4,7,1.79,1.09,2.39A23.36,23.36,0,0,0,339.79,320.48Zm6.51-8.59c-.37-1.74,3.42-2.23,4.05-.83C350.88,312.26,346.66,313.62,346.3,311.89Zm32.46,9.6c.36-.95,2.9.13,2.67,1.31C381.11,324.37,378.41,322.43,378.76,321.49Zm-17.92,6.08c1.85-.74,4.74,3.86,2.72,4.91S359.32,328.18,360.84,327.57Z" style="fill:#3A3A3C"></path><path d="M344.58,340.09c2.79-4.66,5.55-9.34,8.48-13.92,1.36-2.13,2.79-4.22,4.27-6.27l-.66-.16-1.11-.21c-.86-.15-1.72-.27-2.59-.36s-1.63-.13-2.45-.14a12,12,0,0,0-2.61.14.07.07,0,1,1,0-.14c.87,0,1.76-.08,2.63-.09s1.7,0,2.54.06a23.2,23.2,0,0,1,2.37.25c.44.06.87.14,1.3.22a7.43,7.43,0,0,1,.79.17c1.51-2.08,3.08-4.11,4.7-6.11A56.23,56.23,0,0,0,347,308.66c-.09,0-.05-.15,0-.14a51.78,51.78,0,0,1,15.48,4.7l2.69-3.27c1-1.21,2.09-2.4,3-3.68.06-.09.18,0,.12.08a51,51,0,0,0-3.54,4.33h0a52.89,52.89,0,0,1,5.68,4.55q2.78,2.47,5.42,5.1c.07.06,0,.16-.1.1-1.74-1.73-3.54-3.38-5.42-4.95s-3.87-3-5.76-4.55l0,0c-.43.58-.86,1.15-1.3,1.71-.22.28-.43.57-.65.86l-.05.06c-.73.94-1.45,1.89-2.17,2.84a22.7,22.7,0,0,1,2.16,3.89c.62,1.31,1.17,2.67,1.67,4a58.29,58.29,0,0,1,2.32,8.74c0,.08-.11.12-.13,0a51.12,51.12,0,0,0-2.54-8.57c-.54-1.42-1.16-2.81-1.79-4.2s-1.29-2.47-1.83-3.75c-.62.83-1.25,1.67-1.86,2.51-.18.24-.35.49-.52.74,0,.05,0,.12-.06.13h0c-1.92,2.67-3.74,5.41-5.51,8.18a2.59,2.59,0,0,1,.24.6c.11.34.22.68.32,1a21,21,0,0,1,.49,2.08c.11.65.21,1.32.27,2a21.28,21.28,0,0,0,.17,2.26c0,.11-.16.12-.14,0a7.44,7.44,0,0,0-.15-2.1c-.1-.72-.24-1.44-.4-2.15s-.33-1.28-.52-1.91c-.09-.31-.19-.63-.3-.94s-.14-.34-.2-.51c-.83,1.3-1.65,2.6-2.46,3.92-1.6,2.61-3.19,5.22-4.8,7.83A.12.12,0,0,1,344.58,340.09Z" style="fill:#263238"></path><path d="M387.59,375.9c.07-2.64.49-5.31.78-7.93s.58-5.28.86-7.92c.55-5.09.85-10.29,2-15.28a22.22,22.22,0,0,1,6.21-11.42,10.13,10.13,0,0,1,6.1-2.91,10.53,10.53,0,0,1,6.47,2,22.68,22.68,0,0,1,5.44,5.74,55.93,55.93,0,0,1,4.25,6.89c0,.09-.1.15-.15.06a35.29,35.29,0,0,0-9.18-10.29,10.86,10.86,0,0,0-5.79-2.41,7.8,7.8,0,0,0-5.61,2.24c-3.08,2.68-4.87,6.62-5.93,10.49-1.26,4.58-1.66,9.41-2.29,14.11-.38,2.79-.73,5.59-1.1,8.39s-.6,5.63-1.19,8.37A.46.46,0,0,1,387.59,375.9Z" style="fill:#263238"></path><path d="M400.59,355.38a14.68,14.68,0,0,0,2.87,2.93c-.43-2.57-1-7.16.34-9.59,2-3.79,4.42-1.9,3.21,1.39a26.54,26.54,0,0,0-1.94,9.34,41.19,41.19,0,0,0,8.77,4.14,15,15,0,0,1-.29-4.52c.41-4.05,3.51-4,2.7.24a25.48,25.48,0,0,0-.42,4.94,91.21,91.21,0,0,0,13.68,3.09,40.09,40.09,0,0,0,5.66-10.08c-3.3-.82-10-1-9.83-3.37.19-3.17,6.65-.73,10.44,1.57a25.38,25.38,0,0,0,1.14-8.53,42.88,42.88,0,0,0-9.09-1.5c-6.79-.59-6.46-4.44-1.54-4.35,3.63.07,8.22,2.29,10.4,3.45-1.42-9.24-8.46-15.15-14.11-15.38-9.49-.38-6.07,11.43-6.07,11.43s-6.44-4.52-12.51-4.4S394.1,346.35,400.59,355.38Zm25.35-17.08c-.21-1.33,4-1.65,4.25.06C430.44,340.27,426.15,339.65,425.94,338.3Zm6.82,13.86c-.09-.87,1.74-1,2.15.07C435.19,353,432.83,353,432.76,352.16ZM410,353c1.43.2,2.25,5.32-.22,5.22C407.87,358.11,408.75,352.8,410,353Z" style="fill:#3A3A3C"></path><path d="M411.94,358.65c.24-.64.45-1.28.65-1.93-.18.65-.35,1.31-.47,2A.09.09,0,1,1,411.94,358.65Z" style="fill:#263238"></path><path d="M414.45,350.43c.44-1.31.94-2.61,1.45-3.9.27-.68.56-1.37.86-2a8,8,0,0,1,.84-1.71,14.55,14.55,0,0,1-.77-1.66c0-.05.05-.1.09-.05a18.73,18.73,0,0,1,1.85,2.87c.27.44.52.9.77,1.35a12.11,12.11,0,0,1,1.6.25c.57.1,1.14.22,1.7.35s1.13.25,1.69.39,1.12.32,1.69.4c.13,0,.07.23-.05.18a10.82,10.82,0,0,0-1.78-.46c-.54-.12-1.09-.22-1.64-.29s-1.1-.15-1.66-.21l-1.25-.1c.22.4.46.79.68,1.19a1.86,1.86,0,0,0,.1.2,5.27,5.27,0,0,1,1.36.16c.49.09,1,.18,1.47.29,1,.22,2,.45,2.95.72,2.06.58,4.08,1.23,6.11,1.89.11,0,0,.21-.07.17a61.24,61.24,0,0,0-6.14-1.7c-1-.22-1.94-.44-2.91-.64l-1.47-.31a8.8,8.8,0,0,1-1.13-.26c1,1.93,2,3.9,2.93,5.9,2,4.35,3.63,8.84,5.32,13.31,0,.11-.13.18-.17.07a121.07,121.07,0,0,0-5.66-13c-.38-.77-.77-1.53-1.15-2.31,0,.16-.07.32-.1.48-.1.52-.19,1.05-.28,1.58-.18,1.06-.36,2.12-.52,3.18a36.78,36.78,0,0,0-.76,6.6c0,.14-.21.13-.19,0,.17-1.05.17-2.15.24-3.21s.15-2.23.28-3.33.26-2.13.44-3.19c.09-.53.18-1.06.28-1.59a3.2,3.2,0,0,1,.29-1.15c-.55-1.11-1.1-2.23-1.67-3.34s-1.06-2.09-1.6-3.12c-.23-.44-.48-.88-.72-1.33a13,13,0,0,1-.63,1.6l-.73,1.8c-.55,1.32-1.05,2.66-1.56,4-.72,1.9-1.51,3.84-2.1,5.82C413.31,354.32,413.8,352.34,414.45,350.43Z" style="fill:#263238"></path><path d="M412.59,356.72c0-.16.09-.31.14-.46C412.68,356.41,412.64,356.56,412.59,356.72Z" style="fill:#263238"></path><polygon points="371.72 370.76 372.39 384.89 374.1 421.31 411.68 421.31 413.4 384.89 414.06 370.76 371.72 370.76" style="fill:#37474f"></polygon><polygon points="371.72 370.76 372.39 384.89 413.4 384.89 414.06 370.76 371.72 370.76" style="fill:#263238"></polygon><rect x="369.05" y="365.05" width="47.69" height="11.43" transform="translate(785.78 741.52) rotate(180)" style="fill:#37474f"></rect><rect x="402.04" y="421.31" width="6.6" height="5.98" style="fill:#37474f"></rect><rect x="402.04" y="421.31" width="6.6" height="2.99" style="fill:#263238"></rect><rect x="377.15" y="421.31" width="6.59" height="5.98" style="fill:#37474f"></rect><rect x="377.15" y="421.31" width="6.59" height="2.99" style="fill:#263238"></rect></g><g id="freepik--Floor--inject-194"><polygon points="40.63 427.44 92.97 427.2 145.31 427.11 250 426.94 354.69 427.11 407.03 427.2 459.37 427.44 407.03 427.69 354.69 427.77 250 427.94 145.31 427.77 92.97 427.69 40.63 427.44" style="fill:#263238"></polygon></g><g id="freepik--paper-plane--inject-194"><path d="M250.23,297.09c-1.1,0-2.25,0-3.4-.07l0-.75c1.16.05,2.33.07,3.44.07h.54v.75h-.61Zm5.63-.18-.05-.75c1.33-.09,2.66-.21,4-.37l.09.75C258.55,296.69,257.2,296.82,255.86,296.91Zm-14-.21c-1.3-.12-2.65-.26-4-.43l.09-.75c1.34.17,2.67.32,4,.43Zm23-.94-.15-.73c1.31-.26,2.61-.55,3.88-.88l.19.73C267.47,295.21,266.15,295.51,264.83,295.76Zm-32-.24c-1.31-.23-2.64-.48-3.94-.75l.15-.73c1.3.27,2.62.52,3.92.74ZM224,293.65c-1.31-.32-2.61-.67-3.88-1l.2-.72c1.26.36,2.56.71,3.86,1Zm49.53-.24-.25-.71c1.26-.44,2.5-.93,3.7-1.45l.3.68C276.1,292.46,274.84,293,273.56,293.41Zm-58.21-2.28c-2.39-.79-3.78-1.36-3.8-1.36l.29-.7s1.38.56,3.75,1.35Zm66.47-1.43-.37-.66c1.15-.64,2.29-1.34,3.39-2.07l.41.63C284.14,288.34,283,289,281.82,289.7Zm7.5-5.05-.46-.59c1.06-.82,2.1-1.66,3.09-2.51l.49.57C291.44,283,290.39,283.83,289.32,284.65Zm6.82-5.92-.52-.54c.94-.93,1.87-1.89,2.76-2.86l.55.51C298,276.82,297.1,277.79,296.14,278.73Zm6.05-6.72-.59-.46c.83-1,1.63-2.12,2.38-3.19l.62.43C303.83,269.88,303,271,302.19,272Zm5.14-7.43-.64-.39c.69-1.14,1.34-2.31,1.95-3.47l.66.35C308.69,262.24,308,263.42,307.33,264.58Zm4.13-8.05-.68-.3c.51-1.19,1-2.44,1.47-3.69l.71.26C312.49,254.07,312,255.32,311.46,256.53Zm3.05-8.51-.72-.21c.37-1.26.7-2.56,1-3.85l.73.17C315.22,245.43,314.88,246.74,314.51,248Zm1.94-8.83-.74-.12c.2-1.3.36-2.63.49-3.94l.74.07C316.82,236.53,316.65,237.87,316.45,239.19Zm.8-9-.75,0c0-.58,0-1.16,0-1.74,0-.75,0-1.5,0-2.24l.75,0c0,.75,0,1.5,0,2.26C317.27,229,317.26,229.59,317.25,230.18Zm3.77-.87c-.54,0-1.07,0-1.61,0l0-.75a34.71,34.71,0,0,0,3.95,0l.05.75C322.65,229.28,321.83,229.31,321,229.31Zm-6.62-.6a38,38,0,0,1-3.93-.93l.21-.72a37.07,37.07,0,0,0,3.85.91Zm14.05-.17-.15-.73a33.68,33.68,0,0,0,3.82-1l.23.71A34.52,34.52,0,0,1,328.45,228.54ZM305.74,226a35.74,35.74,0,0,1-3.58-1.87l.38-.64a35.32,35.32,0,0,0,3.51,1.82Zm31.27-.47-.33-.67a35.3,35.3,0,0,0,3.42-2l.41.62A35.79,35.79,0,0,1,337,225.55Zm-39-4.27c-.66-.53-1.32-1.1-1.95-1.69-.36-.34-.71-.68-1-1l.53-.53c.33.34.67.67,1,1,.62.58,1.26,1.13,1.91,1.66Zm18.14-.06c-.15-1.33-.34-2.65-.56-3.93l.74-.13c.23,1.3.42,2.64.56,4Zm28.38-.77-.5-.56a35.19,35.19,0,0,0,2.82-2.78l.55.51A36.46,36.46,0,0,1,344.52,220.45Zm-52.69-5.83A17.7,17.7,0,0,1,290,211l.7-.25a17.75,17.75,0,0,0,1.74,3.49Zm58.71-1-.62-.43c.57-.8,1.11-1.65,1.62-2.5.17-.28.34-.56.5-.85l.65.37c-.17.29-.33.58-.5.86C351.67,212,351.11,212.85,350.54,213.67Zm-36-1.23c-.36-1.32-.76-2.59-1.2-3.78l.71-.26c.44,1.21.85,2.5,1.21,3.84ZM289.93,206l-.75,0a11.27,11.27,0,0,1,.88-4l.69.29A10.72,10.72,0,0,0,289.93,206Zm65-.2-.68-.29c.5-1.18,1-2.43,1.43-3.7l.71.24C355.93,203.3,355.44,204.56,354.92,205.75Zm-43.63-1.6a21.31,21.31,0,0,0-2.16-3.27l.58-.48a22.14,22.14,0,0,1,2.24,3.39Zm-17.67-5.75-.46-.58a10.4,10.4,0,0,1,3.66-1.9l.2.72A9.76,9.76,0,0,0,293.62,198.4Zm11.8-.62a12,12,0,0,0-3.62-1.33l.14-.74a13,13,0,0,1,3.85,1.42Zm52.42-.59-.73-.19c.32-1.19.63-2.46.95-3.87l.73.16C358.47,194.72,358.16,196,357.84,197.19Zm2-8.8-.74-.15.77-3.92.73.14Zm1.78-8.81-.73-.17c.32-1.44.64-2.72,1-3.9l.72.2C362.23,176.88,361.91,178.15,361.59,179.58Zm2.5-8.59-.7-.26A33.88,33.88,0,0,1,365,167l.67.34A36.34,36.34,0,0,0,364.09,171Zm4.17-7.81-.61-.45a29.5,29.5,0,0,1,2.61-3.08l.53.52A29.19,29.19,0,0,0,368.26,163.18Zm6.25-6.23-.45-.61a37.17,37.17,0,0,1,3.39-2.19l.37.66A32.39,32.39,0,0,0,374.51,157Zm7.75-4.31L382,152c1.05-.44,2.16-.86,3.31-1.25l.24.71C384.38,151.79,383.29,152.2,382.26,152.64Z" style="fill:#263238"></path><polygon points="383.21 135.44 375.56 156.46 391.63 143.91 453.05 121.64 383.21 135.44" style="fill:#3A3A3C"></polygon><polygon points="383.21 135.44 375.56 156.46 391.63 143.91 453.05 121.64 383.21 135.44" style="opacity:0.1"></polygon><polygon points="393.69 148.81 375.56 156.46 391.63 143.91 393.69 148.81" style="fill:#263238"></polygon><polygon points="391.63 143.91 453.05 121.64 402.67 170.8 391.63 143.91" style="fill:#3A3A3C"></polygon><polygon points="383.21 135.44 357.69 118.96 453.05 121.64 383.21 135.44" style="fill:#3A3A3C"></polygon></g><g id="freepik--Character--inject-194"><path d="M83.42,427.28,250,428c40.49-31.79,44.67-78.9,15.78-107.45C248.31,303.27,226.11,306.75,205,304h-.06c-7.36-1-14.58-2.67-21.44-6.29-21.77-11.48-34-38.57-52.35-61.36-2.28-2.85-4.67-5.63-7.17-8.31-15.06-16.08-45-16.6-60.71,6C23.41,291.47,41.65,377,83.42,427.28Z" style="fill:#3A3A3C"></path><path d="M79.72,295.85c4.36,68.35,83.3,93.86,132.59,73.39C255.18,351.43,241.15,310.8,205,304h-.06c-7.36-1-14.58-2.67-21.44-6.29-21.77-11.48-34-38.57-52.35-61.36C103.84,222.17,76.52,245.81,79.72,295.85Z" style="opacity:0.1"></path><path d="M236.55,438c-2.57-.94-60.63-47.34-61.72-50.51-.42-1.2,5.84-10,13.71-20.53,1.7-2.26,3.47-4.59,5.28-6.94,11.73-15.29,24.54-31.23,24.54-31.23l38.93,30.92-25.61,30.39-5.62,6.67s14.28,27.71,15.11,31.31S239.12,439,236.55,438Z" style="fill: rgb(247, 169, 160);"></path><path d="M236.55,438c-2.57-1-60.62-47.34-61.72-50.51-.35-1,3.73-7,9.51-14.87,8.44,10.09,37.87,40.13,45.91,44.15,5.1,2.55,4.09-2.46,2.18-7.44,3.92,7.83,8.29,16.8,8.74,18.74C242,431.72,239.12,439,236.55,438Z" style="fill:#263238"></path><path d="M296.6,300.29c-2.66,20.22-52.5,78.6-58.26,85.3L237,387.11,195.8,355.43l.47-.61,36.31-47.54s-60,35-90.07,19.13C129,319.27,119,306.58,119,306.58l39.2-20.9s10.85,3.51,17.78,2.5c23.9-3.5,77.45-23.83,90.16-23.32C282.55,265.53,299.05,281.73,296.6,300.29Z" style="fill:#37474f"></path><path d="M245.62,289.61a48.34,48.34,0,0,0-3.75,4.8c-1.28,1.69-2.59,3.35-3.87,5l0,.05c.23-.5.45-1,.69-1.48.81-1.68,1.46-3.41,2.41-5a.09.09,0,0,0-.15-.09c-1,1.59-2.12,3.1-3,4.77-.4.79-.77,1.59-1.12,2.4-.19.44-.39.89-.56,1.34a5.49,5.49,0,0,0-.24.65c-.57.78-1.14,1.56-1.69,2.36-1.22,1.77-2.3,3.64-3.54,5.4-.07.09.08.18.15.09,1.25-1.65,2.66-3.19,3.93-4.83s2.53-3.38,3.74-5.11,2.34-3.39,3.53-5.08a52.2,52.2,0,0,0,3.57-5.21C245.75,289.63,245.67,289.56,245.62,289.61Z" style="fill:#263238"></path><path d="M112.49,231.29c-.55,12.06-3.23,26.45,1.88,37.87,4,8.94,12.45,15,21.17,18.84,19.2,8.49,46.07,9.6,59.52-9.46,5.37-7.61,6.29-23.47-2.62-29.27-4.57-3-10-3.66-15.18-5.06a22,22,0,0,1-14.89-12c-6.17-12.37-4.94-21.42-6.11-34.8a9.55,9.55,0,0,0-3.26-7,17,17,0,0,0-7.94-4.41,16.8,16.8,0,0,0-8.13-1.34c-5.92.62-11.61,6.08-16.2,9.48s-6.77,7-7.13,12.87C113.11,215.08,112.86,223.19,112.49,231.29Z" style="fill:#263238"></path><path d="M111,237c1.22-11,2.64-22,4-33,0-.06.11-.06.1,0-.85,9.08-1.58,18.17-2.55,27.24-1,8.9-2.54,18-2.71,26.93-.38,20.09,20.28,28.26,37.36,27.28.78,0,.76,1.2,0,1.22-15,.39-32.95-4.74-37.49-21.07C107.19,256.64,110,246,111,237Z" style="fill:#263238"></path><path d="M155.29,196.35c0-.21.32-.2.33,0,.5,11,0,24,6.34,33.59a28,28,0,0,0,12.8,10.58c4.15,1.69,8.55,1.84,12.88,2.69,17,3.33,17.13,26.23,4.8,35.16-.26.19-.59-.25-.34-.45,8.68-6.91,11.54-19.48,4.47-28.7-5.68-7.4-16.58-5-24.32-9C156.21,231.9,155,212.39,155.29,196.35Z" style="fill:#263238"></path><path d="M137.93,244.33c7.34,10.54,32.41,39.5,49.81,43.46,9.59,2.19,55.91,8.67,62.26,2.89,7.44-6.77,4-32.27-1.92-32.5-18.05-.71-51.44,2.82-59.78,1-3.77-.84-23.77-13.74-45.13-24.06C135.09,231.2,133.19,237.53,137.93,244.33Z" style="fill: rgb(247, 169, 160);"></path><path d="M155.85,269.59l7-25.79s-11.75-6.52-18.76-9.21c-9.28-3.56-12.78-1-7.09,9.82C140.82,251.62,155.85,269.59,155.85,269.59Z" style="fill:#ebebeb"></path><path d="M154.12,266.31c.76-3.82,1.57-7.63,2.55-11.4.49-1.88,1-3.76,1.56-5.62s1.29-3.68,1.8-5.55c0-.1.2-.05.16,0-.61,1.84-1,3.78-1.5,5.65s-1,3.75-1.52,5.63c-1,3.76-2,7.52-2.9,11.29C154.25,266.47,154.1,266.42,154.12,266.31Z" style="fill:#263238"></path><path d="M161.76,247.86l-5.91,21.74s-15-18-18.84-25.19c-1.75-3.33-2.64-5.88-2.74-7.7Z" style="fill:#263238"></path><path d="M100.2,315.71c2.31.75,67.84-18.22,67.84-18.22l-7.74-22.75s3.83-7.32,2-14.36c-2.37-9.4-19.78-24.86-21.14-25.77C135.72,231,130.57,231,126,233.45,107.07,243.52,100.2,315.71,100.2,315.71Z" style="fill:#ebebeb"></path><path d="M150.2,242.8c1.69,2,3.5,3.84,5.24,5.76-.81-1.43-1.62-2.87-2.48-4.28,0,0,0-.06,0,0a32.36,32.36,0,0,1,3.32,5.29,42.47,42.47,0,0,1,3.61,4.62,20.46,20.46,0,0,1,3,6.34,17.3,17.3,0,0,1,.2,7,45.45,45.45,0,0,1-2.21,7.84c-.12.34-.6.12-.51-.21,1.23-4.44,2.63-9.13,1.64-13.77s-3.85-8.46-6.64-12.11a66,66,0,0,0-5.33-6.36C150,242.83,150.12,242.72,150.2,242.8Z" style="fill:#263238"></path><path d="M139.28,273.1a58.27,58.27,0,0,1,8.54-1c1.42,0,2.84,0,4.26.07.71,0,1.42,0,2.13,0a9.14,9.14,0,0,0,2.21-.2c.06,0,.09.08,0,.1a16.09,16.09,0,0,1-2,.53,15.31,15.31,0,0,1-2,.18c-1.45,0-2.89,0-4.34.06-2.91.06-5.83.12-8.73.4C139.17,273.35,139.15,273.12,139.28,273.1Z" style="fill:#263238"></path><path d="M133.17,277.44a63.77,63.77,0,0,1,6.72-2.24c1.15-.31,2.3-.54,3.46-.75l1.68-.27c.61-.09,1.24-.1,1.85-.2.07,0,.1.09,0,.1-.58.11-1.14.32-1.7.46l-1.72.43c-1.14.29-2.28.6-3.43.88-2.29.56-4.57,1.14-6.84,1.78A.1.1,0,0,1,133.17,277.44Z" style="fill:#263238"></path><path d="M130.11,234.73c.26,1.19,5.81,9,11.23,8.78,1.76-.06,1.86-9.7,1.86-9.7l.17-.71,2.38-9.95-13.3-8.71S130,234.22,130.11,234.73Z" style="fill: rgb(247, 169, 160);"></path><path d="M145.75,223.14l-2.38,10a20.58,20.58,0,0,1-11.74-11.89c.41-3.43.76-6.28.81-6.7a.28.28,0,0,0,0-.06l1.69,1Z" style="fill:#263238"></path><path d="M158.64,204.82c4.43,17.4-5.49,22-9.24,23-3.41.86-15.11,3.37-21.31-13.47s.49-24.4,8.17-26.79S154.22,187.43,158.64,204.82Z" style="fill: rgb(247, 169, 160);"></path><path d="M155.3,202.66c-.42,0-.82,0-1.24,0a2,2,0,0,1-1.26-.28.64.64,0,0,1-.13-.77,1.56,1.56,0,0,1,1.46-.64,2.34,2.34,0,0,1,1.59.55A.68.68,0,0,1,155.3,202.66Z" style="fill:#263238"></path><path d="M143.6,206.32c.41-.13.76-.31,1.15-.47a2.08,2.08,0,0,0,1.08-.7.65.65,0,0,0-.14-.77,1.58,1.58,0,0,0-1.6-.09,2.32,2.32,0,0,0-1.29,1.07A.68.68,0,0,0,143.6,206.32Z" style="fill:#263238"></path><path d="M146.58,208.51s-.08.07-.07.12c.29,1.19.41,2.6-.59,3.22,0,0,0,.08,0,.06C147.23,211.46,147,209.59,146.58,208.51Z" style="fill:#263238"></path><path d="M145.26,207.48c-2,.25-1.32,4.14.5,3.91S146.9,207.27,145.26,207.48Z" style="fill:#263238"></path><path d="M144.53,207.81c-.31.27-.58.72-1,.83s-.89-.23-1.27-.57c0,0-.06,0-.06.06.12.75.53,1.46,1.35,1.44s1.16-.76,1.22-1.54C144.8,207.88,144.65,207.7,144.53,207.81Z" style="fill:#263238"></path><path d="M153.5,207s.1.05.11.1c.15,1.21.53,2.57,1.68,2.8,0,0,0,.07,0,.07C153.93,209.94,153.45,208.13,153.5,207Z" style="fill:#263238"></path><path d="M154.38,205.52c1.92-.45,2.68,3.42.9,3.84S152.77,205.9,154.38,205.52Z" style="fill:#263238"></path><path d="M155.24,205.62c.34.14.72.46,1.09.41s.66-.54.85-1c0,0,.06,0,.07,0,.16.73.07,1.55-.61,1.83s-1.23-.28-1.55-1C155,205.79,155.1,205.56,155.24,205.62Z" style="fill:#263238"></path><path d="M148.19,219.21c.32.26.64.62,1.09.62a3.19,3.19,0,0,0,1.28-.43s.08,0,.06.06a1.65,1.65,0,0,1-1.49.8,1.29,1.29,0,0,1-1-1C148.05,219.2,148.14,219.17,148.19,219.21Z" style="fill:#263238"></path><path d="M152.63,213.69a26.89,26.89,0,0,1,.64,2.62c0,.08-.19.15-.47.21,0,0,0,0,0,0a4.08,4.08,0,0,1-4.15-.93.09.09,0,0,1,.11-.14,6.1,6.1,0,0,0,3.85.51c0-.24-1-3-.85-3a7.91,7.91,0,0,1,2,.16c-1-3.72-2.53-7.25-3.44-11a.12.12,0,0,1,.21-.09,61.65,61.65,0,0,1,4.21,11.64C154.84,214.17,153,213.79,152.63,213.69Z" style="fill:#263238"></path><path d="M152.71,216.19a5.06,5.06,0,0,1-1.57,2,2.2,2.2,0,0,1-1.31.42c-1,0-1.27-.89-1.28-1.69a5.62,5.62,0,0,1,.14-1.26A6.52,6.52,0,0,0,152.71,216.19Z" style="fill:#263238"></path><path d="M151.14,218.18a2.2,2.2,0,0,1-1.31.42c-1,0-1.27-.89-1.28-1.69A2.34,2.34,0,0,1,151.14,218.18Z" style="fill:#ff9cbd"></path><path d="M129.33,215.61c1.88-.62,5.43-7.18,3.12-16.41,0,0,1.5,8.43,1.2,9.8s2-3.68.23-11.15a31.17,31.17,0,0,0,8.65,1.91c3.76,0,5.9-.56,6.08-.88s-5.4-.57-7.22-1.8c0,0,10.46,1.83,14.84,1,.51-.09-1.63-10.45-9.42-13s-17.05,4.93-19.14,8.42c0,0-3.2,1.36-5.49,7.23S127.32,216.28,129.33,215.61Z" style="fill:#263238"></path><path d="M131.19,214.94s-4.77-4.89-7-3.1,1.94,9.32,5.06,9.93a3,3,0,0,0,3.75-2.26Z" style="fill: rgb(247, 169, 160);"></path><path d="M125.4,214c-.05,0-.05.07,0,.08,2.2.49,3.6,2.23,4.69,4.09a1.68,1.68,0,0,0-2.55,0c-.05,0,0,.12.08.1a1.85,1.85,0,0,1,2.13.31A8.85,8.85,0,0,1,131,220c.13.17.44,0,.34-.19l0,0C130.92,217.12,128.27,213.77,125.4,214Z" style="fill:#263238"></path><path d="M116.64,249.48c-5.27,29.89-.17,52.28,4.9,55.06,13.67,7.46,46.5-7.68,55.76-10.69C181,292.64,164,264,160.16,265.78c-9,4.16-21.61,11.22-22.12,11.16-1-.1-2.2-7.73-7.42-30C126.39,229,118.8,237.26,116.64,249.48Z" style="fill: rgb(247, 169, 160);"></path><path d="M207.14,251.61c.94,3.76-8.52,5.28-8.52,5.28a7.18,7.18,0,0,1,3.75,3.1c1.38,2.6-2.1,5.89-2.1,5.89a8.8,8.8,0,0,1,3.43,3.89c1.07,2.62-2,6.45-2,6.45a7.71,7.71,0,0,1,.86,5.32c-1.16,4.82-8.55,6.72-12.89,8.8-4.65,2.23-12.35,3.05-15.84,4.62l-15.13-27.72s14.62-15.48,23-17.88C186.33,248,205.71,245.87,207.14,251.61Z" style="fill: rgb(247, 169, 160);"></path><path d="M198.52,256.81c-5.26-.23-10.57.8-15.68,1.85a.09.09,0,0,0,0,.17c5.07-1.1,10.56-.87,15.66-1.77A.13.13,0,0,0,198.52,256.81Z" style="fill:#263238"></path><path d="M200,265.54a13.82,13.82,0,0,0-3.53.65c-1.23.32-2.45.66-3.68,1-2.44.72-4.87,1.49-7.27,2.33-.11,0-.08.21,0,.18,2.43-.71,4.88-1.38,7.35-2,1.23-.31,2.47-.6,3.7-.89a16.52,16.52,0,0,0,3.47-1A.18.18,0,0,0,200,265.54Z" style="fill:#263238"></path><path d="M201.64,276.25a9.38,9.38,0,0,0-3.15.76l-3.33,1c-2.22.68-4.44,1.35-6.68,1.95-.11,0-.08.21,0,.18,2.28-.6,4.57-1.16,6.85-1.78,1.11-.3,2.23-.61,3.34-.93a8.73,8.73,0,0,0,3-1.1A.06.06,0,0,0,201.64,276.25Z" style="fill:#263238"></path><path d="M138,276.94c3.58-2.06,7.21-4,10.85-6l5.51-2.86,2.77-1.39a25.23,25.23,0,0,1,2.91-1.29l-.18.1c2.44-2.37,4.89-4.72,7.48-6.93,1.28-1.11,2.58-2.21,3.93-3.24a30.15,30.15,0,0,1,4.24-2.84,35.64,35.64,0,0,0-4,3.1c-1.28,1.1-2.55,2.22-3.79,3.38-2.46,2.32-4.93,4.64-7.31,7l-.06.05-.12.05c-.85.31-1.83.82-2.74,1.24l-2.79,1.36-5.53,2.77C145.47,273.33,141.78,275.18,138,276.94Z" style="fill:#263238"></path><path d="M111.56,275.48l23.89-12s-3-13.1-5.67-20.12c-3.54-9.28-7.81-10.14-12,1.28C114.92,252.29,111.56,275.48,111.56,275.48Z" style="fill:#ebebeb"></path><path d="M112.85,272c3.35-2,6.73-3.92,10.19-5.7,1.73-.89,3.48-1.76,5.23-2.6s3.6-1.49,5.34-2.35c.09,0,.16.11.06.15-1.77.76-3.47,1.78-5.2,2.65s-3.48,1.74-5.21,2.63c-3.46,1.77-6.93,3.53-10.35,5.38C112.82,272.2,112.76,272.05,112.85,272Z" style="fill:#263238"></path><path d="M114.42,274c-.92.56-1.85,1.08-2.77,1.61l-.33.19.05-.39c.36-3.31.83-6.59,1.41-9.86s1.25-6.53,2.14-9.73c-.2,1.65-.42,3.29-.67,4.93s-.48,3.28-.75,4.92c-.52,3.27-1.11,6.54-1.75,9.8l-.28-.21C112.45,274.88,113.42,274.44,114.42,274Z" style="fill:#263238"></path><path d="M113.61,259.15a19.67,19.67,0,0,1,0,2.3,21.86,21.86,0,0,1-.19,2.29,20.33,20.33,0,0,1,.14-4.59Z" style="fill:#263238"></path><path d="M132.54,265a31.82,31.82,0,0,1,2.84-1.53c-.39-1.54-.8-3.06-1.17-4.6-.19-.77-.36-1.54-.52-2.31s-.43-1.82-.59-2.57c0-.12.13-.16.16-.05.31,1,.5,1.69.76,2.52s.44,1.5.64,2.25c.41,1.59.92,3.27,1.26,4.88a26.48,26.48,0,0,1-3.34,1.5A.05.05,0,0,1,132.54,265Z" style="fill:#263238"></path><path d="M134.45,255a8.52,8.52,0,0,1,0,2.85,7.88,7.88,0,0,1,0-2.85Z" style="fill:#263238"></path><rect x="158.85" y="292.39" width="69.54" height="3.12" style="fill:#c7c7c7"></rect><polygon points="173.73 292.39 171.35 295.51 228.39 295.51 228.39 292.39 173.73 292.39" style="fill:#a6a6a6"></polygon><polygon points="176.71 295.5 244.48 295.5 250.12 249.48 182.35 249.48 176.71 295.5" style="fill:#c7c7c7"></polygon><path d="M209.29,272.49a4,4,0,0,0,4.05,4.13,4.22,4.22,0,0,0,4.2-4.13,4,4,0,0,0-4-4.12A4.21,4.21,0,0,0,209.29,272.49Z" style="fill:#fff"></path><path d="M249.57,253.93c2.55,3.94,8.86,8.55,9.73,11.93a4,4,0,0,1-1.65,4.49s3.65,1.26,3.93,4.46c.15,1.64-2.36,3.32-2.36,3.32s2.89,1.13,3,4c.06,2.28-2.46,3.62-2.46,3.62s2.26,2.38,1.58,4.72c-1.39,4.75-20.79,7.31-24.73.56-1.84-3.14,2.94-3.51,2.94-3.51s-7-1.13-7.63-5.12,5.6-4.09,5.6-4.09-6.76-1.15-7-5.35c-.25-4.37,6-3.4,6-3.4s-4.7-2.36-4.14-5.62c.91-5.37,12,.34,16.11-1.23Z" style="fill: rgb(247, 169, 160);"></path><path d="M259.36,286a.05.05,0,0,1,0,.1,33.93,33.93,0,0,1-20.14,1.45c-.21-.06-.22-.42,0-.41A69.4,69.4,0,0,0,259.36,286Z" style="fill:#263238"></path><path d="M259.32,278.16c.08,0,.1.1,0,.13-6.38,2.44-14.87,3-22.07.22-.25-.1-.37-.43-.08-.34C242.13,279.68,253.14,279.52,259.32,278.16Z" style="fill:#263238"></path><path d="M236,269.17c7,2.44,14.1,2.39,21.37,1.29.09,0,.1.12,0,.16-3.41,1.5-8.12,1.72-11.8,1.58a19.49,19.49,0,0,1-9.68-2.78C235.82,269.35,235.87,269.12,236,269.17Z" style="fill:#263238"></path><path d="M387.05,385.45c-.95,2.57-47.53,60.48-50.7,61.56-1.2.42-10-5.87-20.49-13.78-2.25-1.71-4.57-3.48-6.92-5.3-15.25-11.78-31.15-24.64-31.15-24.64l31-38.82,30.3,25.7,6.65,5.64s27.75-14.19,31.36-15S388,382.89,387.05,385.45Z" style="fill: rgb(247, 169, 160);"></path><path d="M387.06,385.46c-1,2.56-47.54,60.47-50.71,61.56-1.05.37-7.93-4.4-16.64-10.89,8.89-6.47,42.63-36.86,47.16-45.09,2.38-4.33-1.1-4.3-5.36-3.1,7-3.43,13.95-6.75,15.64-7.14C380.75,380,388,382.89,387.06,385.46Z" style="fill:#263238"></path><path d="M337.51,384.31l-32.31,43.6-109-75.66L185.65,345s-3,2-7.46,4.48c-6.22,3.44-15.34,7.8-23.41,9-13.54,2-36.14,1.79-47.55-13.47-9.61-12.84-4.39-29.6-4.39-29.6L117.7,309s35.17-29.3,58-30.18c9.67-.39,23.76,7,36.81,14.61S337.51,384.31,337.51,384.31Z" style="fill:#37474f"></path><path d="M185.65,345s-3,2-7.46,4.48c-7.92-9.48-24.69-26.71-25.2-27.32Z" style="fill:#263238"></path><path d="M130.59,299.15c-2.1,1.46-4.14,3-6.21,4.51s-4.15,2.86-6.09,4.47-3.84,3.39-5.7,5.15c-.89.85-1.78,1.71-2.65,2.59a23.5,23.5,0,0,0-2.53,2.75c-.07.09.07.2.15.15a28.29,28.29,0,0,0,2.82-2.3c1-.83,2-1.67,2.94-2.5,1.89-1.61,3.82-3.17,5.7-4.78s3.61-3.35,5.47-5,4.08-3.36,6.14-5C130.67,299.19,130.63,299.12,130.59,299.15Z" style="fill:#263238"></path><path d="M329.93,382.75c-2.1,2.26-4,4.7-6,7.09s-3.91,4.81-5.85,7.22c-3.87,4.85-7.78,9.66-11.59,14.56-2.09,2.69-4.16,5.4-6.1,8.19-.09.13.11.27.21.16,4.17-4.59,8-9.48,11.85-14.31S320.18,396,324,391.05c2.08-2.68,4.23-5.35,6.14-8.16C330.19,382.78,330,382.65,329.93,382.75Z" style="fill:#263238"></path><path d="M240.44,383.2c-5.42-4.28-11.05-8.32-16.67-12.33s-11.19-8-16.87-11.86c-1.63-1.11-3.28-2.2-4.92-3.29s-3.35-2.1-4.95-3.23c-.1-.06-.18.09-.09.16,1.48,1.06,2.87,2.24,4.32,3.34s2.76,2.11,4.15,3.14c2.73,2,5.48,4,8.23,6q8.36,6,16.85,11.9c3.22,2.2,6.42,4.42,9.71,6.52C240.4,383.65,240.63,383.34,240.44,383.2Z" style="fill:#263238"></path><path d="M275.31,338.21c-5-4.15-10.38-7.89-15.64-11.73s-10.6-7.81-15.94-11.66-10.58-7.66-15.88-11.48c-5.13-3.71-10.24-7.48-15.66-10.77-3-1.79-6-3.46-9.13-5a60,60,0,0,0-9.44-3.86.09.09,0,0,0-.07.17c2.68,1.49,5.48,2.74,8.19,4.18s5.3,2.92,7.89,4.49c5.38,3.27,10.46,7,15.56,10.64,10.6,7.62,21.18,15.28,31.86,22.8,6,4.2,11.82,8.64,18,12.51C275.27,338.66,275.49,338.36,275.31,338.21Z" style="fill:#263238"></path></g><g id="freepik--mail-icon--inject-194"><circle cx="229.87" cy="227.92" r="31.2" transform="translate(-32.22 417.9) rotate(-80.69)" style="fill:#3A3A3C"></circle><polygon points="248.05 248.07 211.69 248.07 211.69 217.31 229.87 205.77 248.05 217.31 248.05 248.07" style="fill:#a6a6a6"></polygon><polygon points="246 247.76 213.75 247.76 213.75 207.35 237.7 207.35 246 215.25 246 247.76" style="fill:#fff"></polygon><polygon points="237.7 207.35 246 215.25 237.7 215.25 237.7 207.35" style="fill:#ebebeb"></polygon><rect x="216.89" y="214.3" width="17.93" height="1.06" transform="translate(451.72 429.67) rotate(180)" style="fill:#dbdbdb"></rect><rect x="216.89" y="216.99" width="17.93" height="1.06" transform="translate(451.72 435.04) rotate(180)" style="fill:#dbdbdb"></rect><rect x="216.89" y="219.67" width="17.93" height="1.06" transform="translate(451.72 440.4) rotate(180)" style="fill:#dbdbdb"></rect><rect x="216.89" y="222.35" width="26.28" height="1.06" transform="translate(460.06 445.77) rotate(180)" style="fill:#dbdbdb"></rect><rect x="216.89" y="225.04" width="26.28" height="1.06" transform="translate(460.06 451.14) rotate(180)" style="fill:#dbdbdb"></rect><rect x="216.89" y="227.72" width="26.28" height="1.06" transform="translate(460.06 456.51) rotate(180)" style="fill:#dbdbdb"></rect><rect x="216.89" y="230.41" width="26.28" height="1.06" transform="translate(460.06 461.88) rotate(180)" style="fill:#dbdbdb"></rect><rect x="216.89" y="233.09" width="26.28" height="1.06" transform="translate(460.06 467.24) rotate(180)" style="fill:#dbdbdb"></rect><rect x="216.89" y="235.77" width="26.28" height="1.06" transform="translate(460.06 472.61) rotate(180)" style="fill:#dbdbdb"></rect><rect x="216.89" y="238.46" width="26.28" height="1.06" transform="translate(460.06 477.98) rotate(180)" style="fill:#dbdbdb"></rect><rect x="216.89" y="241.14" width="26.28" height="1.06" transform="translate(460.06 483.35) rotate(180)" style="fill:#dbdbdb"></rect><rect x="216.89" y="243.82" width="26.28" height="1.06" transform="translate(460.06 488.71) rotate(180)" style="fill:#dbdbdb"></rect><path d="M248.05,225v23.06H211.7V225c1.56.88,3.09,1.81,4.64,2.72s3.08,1.84,4.6,2.78q2.56,1.56,5.11,3.16l0,0,0,0,3.82,2.39,3.81-2.39-.05,0,.06,0,5.1-3.15c1.53-.94,3.07-1.86,4.61-2.78S246.49,225.89,248.05,225Z" style="fill:#ebebeb"></path><path d="M248.05,225c-1.46,1-3,2-4.44,3s-3,2-4.49,3-3.14,2.05-4.71,3.06l-.14.1-4.19,2.67-.21.12-.2-.12-4.18-2.68-.15-.09q-2.37-1.51-4.72-3.06c-1.49-1-3-2-4.48-3s-3-2-4.44-3c1.56.88,3.09,1.81,4.64,2.72s3.08,1.84,4.6,2.78q2.56,1.56,5.11,3.16h0l3.82,2.39,3.81-2.39h0l5.1-3.15c1.53-.94,3.07-1.86,4.61-2.78S246.49,225.89,248.05,225Z" style="fill:#dbdbdb"></path><path d="M226.1,233.64l0,0-.57.49c-.91.77-1.85,1.51-2.8,2.22-1.16.89-2.34,1.73-3.53,2.57s-2.4,1.65-3.63,2.43-2.46,1.56-3.75,2.26c1.11-1,2.25-1.86,3.41-2.74s2.35-1.73,3.53-2.57,2.4-1.65,3.63-2.44c1-.63,2-1.24,3-1.82.23-.14.47-.27.71-.4Z" style="fill:#dbdbdb"></path><path d="M248,243.64c-1.29-.7-2.53-1.47-3.75-2.26s-2.43-1.6-3.64-2.43-2.37-1.68-3.53-2.57c-.94-.71-1.88-1.44-2.78-2.21l-.58-.5-.05,0,.06,0,.71.41c1,.58,2,1.19,3,1.82,1.22.79,2.43,1.61,3.62,2.44s2.38,1.68,3.53,2.57S246.86,242.68,248,243.64Z" style="fill:#dbdbdb"></path><circle cx="229.87" cy="221.14" r="7.65" transform="translate(-38.3 393.85) rotate(-76.67)" style="fill:#3A3A3C"></circle><path d="M226,221.79a34.47,34.47,0,0,1,3.1,2.93l-.7.05c.38-.67.79-1.32,1.21-2s.84-1.29,1.29-1.91a34.21,34.21,0,0,1,2.89-3.62,32.74,32.74,0,0,1-2.13,4.12c-.38.66-.81,1.31-1.22,2s-.85,1.28-1.31,1.91l-.35.49-.35-.44A33.16,33.16,0,0,1,226,221.79Z" style="fill:#fff"></path></g></svg>